<?xml version="1.0" encoding="utf-8"?>
<!-- Generator: Adobe Illustrator 18.1.1, SVG Export Plug-In . SVG Version: 6.00 Build 0)  -->
<svg version="1.1" id="Calque_1" xmlns="http://www.w3.org/2000/svg" xmlns:xlink="http://www.w3.org/1999/xlink" x="0px" y="0px"
	 width="326.9px" height="55.7px" viewBox="0 0 326.9 55.7" enable-background="new 0 0 326.9 55.7" xml:space="preserve">
<g>
	<g>
		<path fill="#474856" d="M65.9,32.6l4.8-4.8l-4.8-4.8l-3.7,3.7L35.3,0L8.5,26.8l-3.7-3.7L0,27.9l4.8,4.8l3.7-3.7l26.8,26.8
			l26.8-26.8L65.9,32.6z M65.9,25.2l2.7,2.7l-2.7,2.7l-2.7-2.7L65.9,25.2z M4.8,30.6l-2.7-2.7l2.7-2.7l2.7,2.7L4.8,30.6z M35.3,53.6
			L9.6,27.9L35.3,2.1l25.8,25.8L35.3,53.6z"/>
		<path fill="#474856" d="M36.4,20.6c1,0,1.9,0.2,2.8,0.6c0.9,0.4,1.6,0.9,2.3,1.6l-1.7,1.7c-0.9-0.9-2.1-1.4-3.4-1.4
			c-0.7,0-1.3,0.1-1.9,0.4c-0.6,0.3-1.1,0.6-1.5,1c-0.4,0.4-0.8,1-1,1.5c-0.3,0.6-0.4,1.2-0.4,1.9c0,0.7,0.1,1.3,0.4,1.9
			c0.3,0.6,0.6,1.1,1,1.5c0.4,0.4,0.9,0.8,1.5,1c0.6,0.3,1.2,0.4,1.9,0.4c1.3,0,2.4-0.5,3.4-1.4l1.7,1.7c-0.7,0.7-1.4,1.2-2.3,1.6
			c-0.9,0.4-1.8,0.6-2.8,0.6c-1,0-1.9-0.2-2.8-0.6c-0.9-0.4-1.7-0.9-2.3-1.6c-0.7-0.7-1.2-1.4-1.6-2.3c-0.4-0.9-0.6-1.8-0.6-2.8
			c0-1,0.2-1.9,0.6-2.8c0.4-0.9,0.9-1.7,1.6-2.3c0.7-0.7,1.4-1.2,2.3-1.6C34.5,20.8,35.4,20.6,36.4,20.6z"/>
	</g>
	<g>
		<path fill="#474856" d="M87.7,21.4h2.1v10.7h6.4v2.2h-8.6V21.4z"/>
		<path fill="#474856" d="M112.1,21.4v2.1h-6.4v3.2h6.4v2.1h-6.4v3.2h6.4v2.2h-8.6V21.4H112.1z"/>
		<path fill="#474856" d="M124.9,26.9c2.7,0.7,4.1,1.6,4.1,3.8c0,2.4-1.9,3.8-4.6,3.8c-2,0-3.8-0.7-5.3-2l1.4-1.6
			c1.2,1.1,2.5,1.7,4,1.7c1.4,0,2.3-0.6,2.3-1.6c0-0.9-0.5-1.4-2.9-2c-2.7-0.7-4.3-1.5-4.3-3.8c0-2.2,1.8-3.7,4.4-3.7
			c1.9,0,3.4,0.6,4.7,1.6l-1.2,1.7c-1.2-0.9-2.3-1.3-3.5-1.3c-1.3,0-2.1,0.7-2.1,1.5C121.9,25.8,122.5,26.3,124.9,26.9z"/>
		<path fill="#474856" d="M150.8,21.4c0.9,0,1.7,0.2,2.5,0.5c0.8,0.3,1.5,0.8,2,1.4l-1.5,1.5c-0.8-0.8-1.8-1.3-3-1.3
			c-0.6,0-1.1,0.1-1.7,0.3c-0.5,0.2-1,0.5-1.4,0.9c-0.4,0.4-0.7,0.8-0.9,1.4c-0.2,0.5-0.3,1.1-0.3,1.7c0,0.6,0.1,1.1,0.3,1.7
			c0.2,0.5,0.5,1,0.9,1.4c0.4,0.4,0.8,0.7,1.4,0.9c0.5,0.2,1.1,0.3,1.7,0.3c1.2,0,2.2-0.4,3-1.2l1.5,1.5c-0.6,0.6-1.3,1.1-2,1.4
			c-0.8,0.3-1.6,0.5-2.5,0.5c-0.9,0-1.7-0.2-2.5-0.5c-0.8-0.3-1.5-0.8-2-1.4c-0.6-0.6-1.1-1.3-1.4-2c-0.3-0.8-0.5-1.6-0.5-2.5
			c0-0.9,0.2-1.7,0.5-2.5c0.3-0.8,0.8-1.5,1.4-2.1c0.6-0.6,1.3-1,2-1.4C149.1,21.6,149.9,21.4,150.8,21.4z"/>
		<path fill="#474856" d="M187.8,21.4c0.9,0,1.7,0.2,2.5,0.5c0.8,0.3,1.5,0.8,2,1.4l-1.5,1.5c-0.8-0.8-1.8-1.3-3-1.3
			c-0.6,0-1.1,0.1-1.7,0.3c-0.5,0.2-1,0.5-1.4,0.9c-0.4,0.4-0.7,0.8-0.9,1.4c-0.2,0.5-0.3,1.1-0.3,1.7c0,0.6,0.1,1.1,0.3,1.7
			c0.2,0.5,0.5,1,0.9,1.4c0.4,0.4,0.8,0.7,1.4,0.9c0.5,0.2,1.1,0.3,1.7,0.3c1.2,0,2.2-0.4,3-1.2l1.5,1.5c-0.6,0.6-1.3,1.1-2,1.4
			c-0.8,0.3-1.6,0.5-2.5,0.5c-0.9,0-1.7-0.2-2.5-0.5c-0.8-0.3-1.5-0.8-2-1.4c-0.6-0.6-1-1.3-1.4-2c-0.3-0.8-0.5-1.6-0.5-2.5
			c0-0.9,0.2-1.7,0.5-2.5c0.3-0.8,0.8-1.5,1.4-2.1c0.6-0.6,1.3-1,2-1.4C186.1,21.6,186.9,21.4,187.8,21.4z"/>
		<path fill="#474856" d="M199.9,21.4h2.1v5.4h6.4v-5.4h2.1v12.9h-2.1v-5.4H202v5.4h-2.1V21.4z"/>
		<path fill="#474856" d="M224.8,21.4c1.8,0,3.3,0.6,4.5,1.9c1.3,1.3,1.9,2.8,1.9,4.5c0,1.8-0.6,3.3-1.9,4.5
			c-1.2,1.3-2.8,1.9-4.5,1.9c-1.8,0-3.3-0.6-4.5-1.9c-1.3-1.2-1.9-2.8-1.9-4.5c0-1.8,0.6-3.3,1.9-4.5
			C221.5,22.1,223,21.4,224.8,21.4z M224.8,23.6c-1.2,0-2.2,0.4-3,1.3c-0.8,0.8-1.2,1.8-1.2,3c0,1.2,0.4,2.2,1.2,3
			c0.9,0.8,1.9,1.2,3,1.2c1.2,0,2.2-0.4,3-1.2c0.8-0.9,1.3-1.9,1.3-3c0-1.2-0.4-2.2-1.3-3C227,24,226,23.6,224.8,23.6z"/>
		<path fill="#474856" d="M237.9,21.4h10.7v2.1h-4.3v10.7h-2.2V23.6h-4.3V21.4z"/>
		<path fill="#474856" d="M255.9,21.4h2.1v12.9h-2.1V21.4z"/>
		<path fill="#474856" d="M274.8,21.4v2.1h-6.4v3.2h6.4v2.1h-6.4v3.2h6.4v2.2h-8.6V21.4H274.8z"/>
		<path fill="#474856" d="M291.1,34.3l-2.5-4.3H285v4.3h-2.1V21.4h6.4c1.2,0,2.2,0.4,3,1.3c0.8,0.8,1.3,1.8,1.3,3
			c0,0.9-0.3,1.7-0.8,2.4c-0.5,0.7-1.1,1.2-1.9,1.5l2.6,4.6H291.1z M289.3,23.6H285v4.3l4.3,0c0.6,0,1.1-0.2,1.5-0.6
			c0.4-0.4,0.6-0.9,0.6-1.5c0-0.6-0.2-1.1-0.6-1.5C290.4,23.8,289.9,23.6,289.3,23.6z"/>
		<path fill="#474856" d="M310,21.4v2.1h-6.4v3.2h6.4v2.1h-6.4v3.2h6.4v2.2h-8.6V21.4H310z"/>
		<path fill="#474856" d="M322.8,26.9c2.7,0.7,4.1,1.6,4.1,3.8c0,2.4-1.9,3.8-4.6,3.8c-2,0-3.8-0.7-5.3-2l1.4-1.6
			c1.2,1.1,2.5,1.7,4.1,1.7c1.4,0,2.3-0.6,2.3-1.6c0-0.9-0.5-1.4-2.9-2c-2.7-0.7-4.3-1.5-4.3-3.8c0-2.2,1.8-3.7,4.4-3.7
			c1.9,0,3.4,0.6,4.7,1.6l-1.2,1.7c-1.2-0.9-2.3-1.3-3.5-1.3c-1.3,0-2.1,0.7-2.1,1.5C319.8,25.8,320.4,26.3,322.8,26.9z"/>
		<g>
			<path fill="#474856" d="M268.3,17.6l2-0.9l1.9,3h-1.7L268.3,17.6z"/>
		</g>
		<path fill="#474856" d="M165.8,32.1l-1.1,2.2h-2.4l6.4-12.9l6.4,12.9h-2.4l-1.1-2.2l-1.1-2.1l-1.9-3.8l-1.9,3.8L165.8,32.1z"/>
	</g>
</g>
</svg>
